<svg version="1.1" id="Layer_1" xmlns="http://www.w3.org/2000/svg" xmlns:xlink="http://www.w3.org/1999/xlink" x="0px" y="0px" viewBox="0 0 96.4 96.4" style="enable-background:new 0 0 96.4 96.4;" xml:space="preserve">
 <g>
  <g id="symbol">
   <path d="M48.2,0C21.6,0,0,21.6,0,48.2s21.6,48.2,48.2,48.2s48.2-21.6,48.2-48.2S74.8,0,48.2,0C48.2,0,48.2,0,48.2,0z M48.2,91.9
			c-24.1,0-43.7-19.6-43.7-43.7S24.1,4.5,48.2,4.5s43.7,19.6,43.7,43.7C91.9,72.3,72.3,91.9,48.2,91.9z">
   </path>
   <path d="M68.1,18.1h-3.3v16.5H31.7V18.1h-3.4c-16.6,11-21.2,33.3-10.2,50c2.7,4.1,6.2,7.6,10.2,10.2h3.4V61.8h33.1v16.5h3.3
			c16.6-11,21.2-33.3,10.3-49.9C75.7,24.3,72.2,20.8,68.1,18.1L68.1,18.1z M27.1,71.8c-13-11.6-14.2-31.6-2.6-44.6c0,0,0,0,0,0
			c0.8-0.9,1.7-1.8,2.6-2.6L27.1,71.8z M64.8,57.2H31.7V39.1h33.1V57.2z M69.3,71.7v-10l0,0V34.6l0,0v-10
			c13,11.7,14.1,31.7,2.4,44.7c0,0,0,0,0,0C70.9,70.1,70.1,70.9,69.3,71.7L69.3,71.7z">
   </path>
  </g>
 </g>
</svg>